# xmcd
#
# Track frame offsets:
#	150
#	4441
#	21040
#	43110
#	64775
#
# Disc length: 1425 seconds
#
# Revision: 0
# Processed by: cddbd v1.5.1PL0 Copyright (c) Steve Scherf et al.
# Submitted via: dBpowerAMP V4.0
#
DISCID=3b058f05
DTITLE=Mary Gauthier - Season Of Mercy
DYEAR=2005
DGENRE=Country
TTITLE0=Interview Introduction
TTITLE1=I Ain't Got No Home (with interview at end)
TTITLE2=Thanksgiving At The Prison
TTITLE3=Christmas In Paradise
TTITLE4=Wheel Inside The Wheel (Live at Cambridge Folk Festival, July 2005)
EXTD=EP
EXTT0=
EXTT1=
EXTT2=
EXTT3=
EXTT4=
PLAYORDER=
